<?xml version="1.0" encoding="utf-8"?>
<!-- Generator: Adobe Illustrator 26.3.0, SVG Export Plug-In . SVG Version: 6.00 Build 0)  -->
<svg version="1.1" id="Capa_1" focusable="false" xmlns="http://www.w3.org/2000/svg" xmlns:xlink="http://www.w3.org/1999/xlink"
	 x="0px" y="0px" viewBox="0 0 68.1 37" style="enable-background:new 0 0 68.1 37;" xml:space="preserve">
<style type="text/css">
	.st0{fill:#FF0029;}
</style>
<path class="st0" d="M22.2,29.1c0.8,0.5,1.6,1,2.4,1.4c8.6,3.8,21.3,6.1,23.7,5.3C55,33.6,62.5,19.5,64.8,13c0,0-7,2.8-14.1,6.1
	c-5.9,2.8-12.4,6-12.4,6l16.5-5c0,0-4.4,10.4-10.2,11.6s-16-2.9-16-2.9c0.8-0.7,11.6-8.6,36.8-18.9c1.1-0.8,1.8-2.1,2-3.4
	C61.6,7.1,56,8.8,50.7,11.3C40.1,16.3,22.2,29.1,22.2,29.1z M3.8,24c1.8,2.3,9.2,4.2,10.2,4.4c-4.6-3.2-14-12-14-12
	C1,19.1,2.3,21.6,3.8,24z"/>
<path class="st0" d="M25.6,22.9c4.9-3.6,22.3-18.3,39.1-22.3c0,0-8.8-1.4-21.3,2.5c-4.5,1.4-11,7.7-23.1,19.4
	c-1.6,0.9-7.5-2.5-10.9-4.1c0,0,5.6,8.9,7.6,11.5c3,4.1,8.5,6.5,8.5,6.5c-0.5-0.5-4.3-4.5-5.4-6.8C19.4,28.5,20.2,26.9,25.6,22.9z"
	/>
</svg>
